%TF.GenerationSoftware,KiCad,Pcbnew,7.0.10*%
%TF.CreationDate,2024-04-03T19:17:27+05:30*%
%TF.ProjectId,BSPD,42535044-2e6b-4696-9361-645f70636258,rev?*%
%TF.SameCoordinates,Original*%
%TF.FileFunction,Copper,L1,Top*%
%TF.FilePolarity,Positive*%
%FSLAX46Y46*%
G04 Gerber Fmt 4.6, Leading zero omitted, Abs format (unit mm)*
G04 Created by KiCad (PCBNEW 7.0.10) date 2024-04-03 19:17:27*
%MOMM*%
%LPD*%
G01*
G04 APERTURE LIST*
G04 Aperture macros list*
%AMRoundRect*
0 Rectangle with rounded corners*
0 $1 Rounding radius*
0 $2 $3 $4 $5 $6 $7 $8 $9 X,Y pos of 4 corners*
0 Add a 4 corners polygon primitive as box body*
4,1,4,$2,$3,$4,$5,$6,$7,$8,$9,$2,$3,0*
0 Add four circle primitives for the rounded corners*
1,1,$1+$1,$2,$3*
1,1,$1+$1,$4,$5*
1,1,$1+$1,$6,$7*
1,1,$1+$1,$8,$9*
0 Add four rect primitives between the rounded corners*
20,1,$1+$1,$2,$3,$4,$5,0*
20,1,$1+$1,$4,$5,$6,$7,0*
20,1,$1+$1,$6,$7,$8,$9,0*
20,1,$1+$1,$8,$9,$2,$3,0*%
G04 Aperture macros list end*
%TA.AperFunction,SMDPad,CuDef*%
%ADD10RoundRect,0.150000X-0.512500X-0.150000X0.512500X-0.150000X0.512500X0.150000X-0.512500X0.150000X0*%
%TD*%
%TA.AperFunction,SMDPad,CuDef*%
%ADD11RoundRect,0.150000X-0.825000X-0.150000X0.825000X-0.150000X0.825000X0.150000X-0.825000X0.150000X0*%
%TD*%
%TA.AperFunction,SMDPad,CuDef*%
%ADD12R,2.290000X3.000000*%
%TD*%
%TA.AperFunction,SMDPad,CuDef*%
%ADD13RoundRect,0.250000X-0.312500X-0.625000X0.312500X-0.625000X0.312500X0.625000X-0.312500X0.625000X0*%
%TD*%
%TA.AperFunction,SMDPad,CuDef*%
%ADD14RoundRect,0.150000X-0.587500X-0.150000X0.587500X-0.150000X0.587500X0.150000X-0.587500X0.150000X0*%
%TD*%
%TA.AperFunction,SMDPad,CuDef*%
%ADD15RoundRect,0.250000X-1.412500X-0.550000X1.412500X-0.550000X1.412500X0.550000X-1.412500X0.550000X0*%
%TD*%
%TA.AperFunction,SMDPad,CuDef*%
%ADD16RoundRect,0.150000X0.150000X-0.587500X0.150000X0.587500X-0.150000X0.587500X-0.150000X-0.587500X0*%
%TD*%
%TA.AperFunction,SMDPad,CuDef*%
%ADD17R,2.000000X1.500000*%
%TD*%
%TA.AperFunction,SMDPad,CuDef*%
%ADD18R,2.000000X3.800000*%
%TD*%
%TA.AperFunction,ComponentPad*%
%ADD19C,1.440000*%
%TD*%
%TA.AperFunction,ComponentPad*%
%ADD20C,3.000000*%
%TD*%
%TA.AperFunction,SMDPad,CuDef*%
%ADD21RoundRect,0.250001X-0.624999X0.462499X-0.624999X-0.462499X0.624999X-0.462499X0.624999X0.462499X0*%
%TD*%
%TA.AperFunction,ComponentPad*%
%ADD22R,3.000000X3.000000*%
%TD*%
%TA.AperFunction,Conductor*%
%ADD23C,0.250000*%
%TD*%
%TA.AperFunction,Conductor*%
%ADD24C,0.500000*%
%TD*%
%TA.AperFunction,Conductor*%
%ADD25C,1.000000*%
%TD*%
G04 APERTURE END LIST*
D10*
%TO.P,U11,1,A*%
%TO.N,Net-(U11-A)*%
X95346500Y-58422000D03*
%TO.P,U11,2,B*%
%TO.N,Net-(U11-B)*%
X95346500Y-59372000D03*
%TO.P,U11,3,GND*%
%TO.N,GND*%
X95346500Y-60322000D03*
%TO.P,U11,4,Y*%
%TO.N,Net-(U11-Y)*%
X97621500Y-60322000D03*
%TO.P,U11,5,VCC*%
%TO.N,VCC*%
X97621500Y-58422000D03*
%TD*%
%TO.P,U9,1,NC*%
%TO.N,unconnected-(U9-NC-Pad1)*%
X95346500Y-53972000D03*
%TO.P,U9,2*%
%TO.N,Net-(U4-Y)*%
X95346500Y-54922000D03*
%TO.P,U9,3,GND*%
%TO.N,GND*%
X95346500Y-55872000D03*
%TO.P,U9,4*%
%TO.N,Net-(Q2-G)*%
X97621500Y-55872000D03*
%TO.P,U9,5,VCC*%
%TO.N,VCC*%
X97621500Y-53972000D03*
%TD*%
%TO.P,U8,1,NC*%
%TO.N,unconnected-(U8-NC-Pad1)*%
X95346500Y-49522000D03*
%TO.P,U8,2*%
%TO.N,Net-(R2-Pad1)*%
X95346500Y-50472000D03*
%TO.P,U8,3,GND*%
%TO.N,unconnected-(U8-GND-Pad3)*%
X95346500Y-51422000D03*
%TO.P,U8,4*%
%TO.N,Net-(Q1-G)*%
X97621500Y-51422000D03*
%TO.P,U8,5,VCC*%
%TO.N,unconnected-(U8-VCC-Pad5)*%
X97621500Y-49522000D03*
%TD*%
%TO.P,U7,1,A*%
%TO.N,Net-(U7-A)*%
X95346500Y-45072000D03*
%TO.P,U7,2,B*%
%TO.N,Net-(U7-B)*%
X95346500Y-46022000D03*
%TO.P,U7,3,GND*%
%TO.N,GND*%
X95346500Y-46972000D03*
%TO.P,U7,4,Y*%
%TO.N,Net-(U4-B)*%
X97621500Y-46972000D03*
%TO.P,U7,5,VCC*%
%TO.N,VCC*%
X97621500Y-45072000D03*
%TD*%
%TO.P,U4,1,A*%
%TO.N,Net-(U11-Y)*%
X95346500Y-40622000D03*
%TO.P,U4,2,B*%
%TO.N,Net-(U4-B)*%
X95346500Y-41572000D03*
%TO.P,U4,3,GND*%
%TO.N,GND*%
X95346500Y-42522000D03*
%TO.P,U4,4,Y*%
%TO.N,Net-(U4-Y)*%
X97621500Y-42522000D03*
%TO.P,U4,5,VCC*%
%TO.N,VCC*%
X97621500Y-40622000D03*
%TD*%
D11*
%TO.P,U3,1*%
%TO.N,Net-(U7-B)*%
X81599000Y-53567000D03*
%TO.P,U3,2,-*%
%TO.N,a_in*%
X81599000Y-54837000D03*
%TO.P,U3,3,+*%
%TO.N,Net-(U3A-+)*%
X81599000Y-56107000D03*
%TO.P,U3,4,V-*%
%TO.N,GND*%
X81599000Y-57377000D03*
%TO.P,U3,5,+*%
%TO.N,Net-(U3B-+)*%
X86549000Y-57377000D03*
%TO.P,U3,6,-*%
%TO.N,b_in*%
X86549000Y-56107000D03*
%TO.P,U3,7*%
%TO.N,Net-(U7-A)*%
X86549000Y-54837000D03*
%TO.P,U3,8,V+*%
%TO.N,VCC*%
X86549000Y-53567000D03*
D12*
%TO.P,U3,9*%
%TO.N,N/C*%
X84074000Y-55472000D03*
%TD*%
D11*
%TO.P,U2,1*%
%TO.N,Net-(Q3-G)*%
X81599000Y-47117000D03*
%TO.P,U2,2,-*%
%TO.N,Net-(Q2-D)*%
X81599000Y-48387000D03*
%TO.P,U2,3,+*%
%TO.N,Net-(U2A-+)*%
X81599000Y-49657000D03*
%TO.P,U2,4,V-*%
%TO.N,GND*%
X81599000Y-50927000D03*
%TO.P,U2,5,+*%
%TO.N,Net-(U2B-+)*%
X86549000Y-50927000D03*
%TO.P,U2,6,-*%
%TO.N,Net-(Q3-D)*%
X86549000Y-49657000D03*
%TO.P,U2,7*%
%TO.N,Net-(R2-Pad1)*%
X86549000Y-48387000D03*
%TO.P,U2,8,V+*%
%TO.N,VCC*%
X86549000Y-47117000D03*
D12*
%TO.P,U2,9*%
%TO.N,N/C*%
X84074000Y-49022000D03*
%TD*%
D11*
%TO.P,U1,1*%
%TO.N,Net-(U11-A)*%
X81599000Y-40667000D03*
%TO.P,U1,2,-*%
%TO.N,Net-(U1A--)*%
X81599000Y-41937000D03*
%TO.P,U1,3,+*%
%TO.N,b_in*%
X81599000Y-43207000D03*
%TO.P,U1,4,V-*%
%TO.N,GND*%
X81599000Y-44477000D03*
%TO.P,U1,5,+*%
%TO.N,a_in*%
X86549000Y-44477000D03*
%TO.P,U1,6,-*%
%TO.N,Net-(U1B--)*%
X86549000Y-43207000D03*
%TO.P,U1,7*%
%TO.N,Net-(U11-B)*%
X86549000Y-41937000D03*
%TO.P,U1,8,V+*%
%TO.N,VCC*%
X86549000Y-40667000D03*
D12*
%TO.P,U1,9*%
%TO.N,N/C*%
X84074000Y-42572000D03*
%TD*%
D13*
%TO.P,R8,1*%
%TO.N,Net-(Q3-G)*%
X89641500Y-64022000D03*
%TO.P,R8,2*%
%TO.N,VCC*%
X92566500Y-64022000D03*
%TD*%
%TO.P,R7,1*%
%TO.N,Net-(U11-A)*%
X89641500Y-60732000D03*
%TO.P,R7,2*%
%TO.N,VCC*%
X92566500Y-60732000D03*
%TD*%
%TO.P,R6,1*%
%TO.N,Net-(U11-B)*%
X89641500Y-57442000D03*
%TO.P,R6,2*%
%TO.N,VCC*%
X92566500Y-57442000D03*
%TD*%
%TO.P,R5,1*%
%TO.N,Net-(U7-A)*%
X89641500Y-54152000D03*
%TO.P,R5,2*%
%TO.N,VCC*%
X92566500Y-54152000D03*
%TD*%
%TO.P,R4,1*%
%TO.N,Net-(Q3-D)*%
X89641500Y-50862000D03*
%TO.P,R4,2*%
%TO.N,GND*%
X92566500Y-50862000D03*
%TD*%
%TO.P,R3,1*%
%TO.N,Net-(U7-B)*%
X89641500Y-47572000D03*
%TO.P,R3,2*%
%TO.N,VCC*%
X92566500Y-47572000D03*
%TD*%
%TO.P,R2,1*%
%TO.N,Net-(R2-Pad1)*%
X89641500Y-44282000D03*
%TO.P,R2,2*%
%TO.N,unconnected-(R2-Pad2)*%
X92566500Y-44282000D03*
%TD*%
%TO.P,R1,1*%
%TO.N,Net-(U4-Y)*%
X89641500Y-40992000D03*
%TO.P,R1,2*%
%TO.N,Net-(Q2-D)*%
X92566500Y-40992000D03*
%TD*%
D14*
%TO.P,Q4,1,D*%
%TO.N,Net-(Q3-D)*%
X71406500Y-65822000D03*
%TO.P,Q4,2,G*%
%TO.N,VCC*%
X71406500Y-67722000D03*
%TO.P,Q4,3,S*%
%TO.N,GND*%
X73281500Y-66772000D03*
%TD*%
%TO.P,Q3,1,G*%
%TO.N,Net-(Q3-G)*%
X71406500Y-61372000D03*
%TO.P,Q3,2,S*%
%TO.N,VCC*%
X71406500Y-63272000D03*
%TO.P,Q3,3,D*%
%TO.N,Net-(Q3-D)*%
X73281500Y-62322000D03*
%TD*%
%TO.P,Q2,1,G*%
%TO.N,Net-(Q2-G)*%
X71406500Y-56922000D03*
%TO.P,Q2,2,S*%
%TO.N,GND*%
X71406500Y-58822000D03*
%TO.P,Q2,3,D*%
%TO.N,Net-(Q2-D)*%
X73281500Y-57872000D03*
%TD*%
D15*
%TO.P,C2,1*%
%TO.N,Net-(Q3-D)*%
X72336500Y-51572000D03*
%TO.P,C2,2*%
%TO.N,GND*%
X77411500Y-51572000D03*
%TD*%
%TO.P,C1,1*%
%TO.N,Net-(Q2-D)*%
X72336500Y-43422000D03*
%TO.P,C1,2*%
%TO.N,GND*%
X77411500Y-43422000D03*
%TD*%
D16*
%TO.P,Q1,1,S*%
%TO.N,unconnected-(Q1-S-Pad1)*%
X45024000Y-63421500D03*
%TO.P,Q1,2,G*%
%TO.N,Net-(Q1-G)*%
X46924000Y-63421500D03*
%TO.P,Q1,3,D*%
%TO.N,Net-(D1-A)*%
X45974000Y-61546500D03*
%TD*%
D17*
%TO.P,U10,1,GND/ADJ*%
%TO.N,GND*%
X37694000Y-69864000D03*
%TO.P,U10,2,VOUT*%
%TO.N,VCC*%
X37694000Y-67564000D03*
%TO.P,U10,3,VIN*%
%TO.N,12V*%
X37694000Y-65264000D03*
D18*
%TO.P,U10,4*%
%TO.N,N/C*%
X31394000Y-67564000D03*
%TD*%
D19*
%TO.P,RV6,1,1*%
%TO.N,VCC*%
X125730000Y-43190000D03*
%TO.P,RV6,2,2*%
%TO.N,Net-(U2A-+)*%
X125730000Y-40650000D03*
%TO.P,RV6,3,3*%
%TO.N,GND*%
X125730000Y-38110000D03*
%TD*%
%TO.P,RV5,1,1*%
%TO.N,VCC*%
X134620000Y-43180000D03*
%TO.P,RV5,2,2*%
%TO.N,Net-(U2B-+)*%
X134620000Y-40640000D03*
%TO.P,RV5,3,3*%
%TO.N,GND*%
X134620000Y-38100000D03*
%TD*%
D20*
%TO.P,K3,11*%
%TO.N,Shutdown A*%
X47928000Y-48768000D03*
%TO.P,K3,12*%
%TO.N,unconnected-(K3-Pad12)*%
X33728000Y-54768000D03*
%TO.P,K3,14*%
%TO.N,Shutdown B*%
X33728000Y-42768000D03*
%TO.P,K3,A1*%
%TO.N,12V*%
X45928000Y-42768000D03*
%TO.P,K3,A2*%
%TO.N,Net-(D1-A)*%
X45928000Y-54768000D03*
%TD*%
D21*
%TO.P,D1,2,A*%
%TO.N,Net-(D1-A)*%
X55118000Y-50255500D03*
%TO.P,D1,1,K*%
%TO.N,12V*%
X55118000Y-47280500D03*
%TD*%
D19*
%TO.P,brake_upper_trig1,3,3*%
%TO.N,GND*%
X125730000Y-67320000D03*
%TO.P,brake_upper_trig1,2,2*%
%TO.N,Net-(U1B--)*%
X125730000Y-69860000D03*
%TO.P,brake_upper_trig1,1,1*%
%TO.N,VCC*%
X125730000Y-72400000D03*
%TD*%
%TO.P,brake_lower_trigger1,1,1*%
%TO.N,VCC*%
X134620000Y-72390000D03*
%TO.P,brake_lower_trigger1,2,2*%
%TO.N,Net-(U3A-+)*%
X134620000Y-69850000D03*
%TO.P,brake_lower_trigger1,3,3*%
%TO.N,GND*%
X134620000Y-67310000D03*
%TD*%
%TO.P,acc_upper_trig1,1,1*%
%TO.N,VCC*%
X125730000Y-57414000D03*
%TO.P,acc_upper_trig1,2,2*%
%TO.N,Net-(U1A--)*%
X125730000Y-54874000D03*
%TO.P,acc_upper_trig1,3,3*%
%TO.N,GND*%
X125730000Y-52334000D03*
%TD*%
%TO.P,acc_lower_trig1,1,1*%
%TO.N,VCC*%
X134620000Y-57414000D03*
%TO.P,acc_lower_trig1,2,2*%
%TO.N,Net-(U3B-+)*%
X134620000Y-54874000D03*
%TO.P,acc_lower_trig1,3,3*%
%TO.N,GND*%
X134620000Y-52334000D03*
%TD*%
D22*
%TO.P,J1,1,Pin_1*%
%TO.N,GND*%
X19685000Y-70485000D03*
D20*
%TO.P,J1,2,Pin_2*%
%TO.N,12V*%
X19685000Y-65405000D03*
%TO.P,J1,3,Pin_3*%
%TO.N,a_in*%
X19685000Y-60325000D03*
%TO.P,J1,4,Pin_4*%
%TO.N,b_in*%
X19685000Y-55245000D03*
%TO.P,J1,5,Pin_5*%
%TO.N,Shutdown A*%
X19685000Y-50165000D03*
%TO.P,J1,6,Pin_6*%
%TO.N,Shutdown B*%
X19685000Y-45085000D03*
%TD*%
D23*
%TO.N,Net-(D1-A)*%
X45974000Y-54814000D02*
X45928000Y-54768000D01*
X45974000Y-61546500D02*
X45974000Y-54814000D01*
D24*
%TO.N,12V*%
X35422000Y-62992000D02*
X37694000Y-65264000D01*
X19685000Y-65405000D02*
X22098000Y-62992000D01*
X22098000Y-62992000D02*
X35422000Y-62992000D01*
D23*
X20422000Y-64668000D02*
X19685000Y-65405000D01*
%TO.N,Net-(D1-A)*%
X55118000Y-53086000D02*
X55118000Y-50255500D01*
X53436000Y-54768000D02*
X55118000Y-53086000D01*
X45928000Y-54768000D02*
X53436000Y-54768000D01*
%TO.N,12V*%
X55118000Y-44958000D02*
X55118000Y-47280500D01*
X52928000Y-42768000D02*
X55118000Y-44958000D01*
X45928000Y-42768000D02*
X52928000Y-42768000D01*
D25*
%TO.N,Shutdown A*%
X21082000Y-48768000D02*
X19685000Y-50165000D01*
X47928000Y-48768000D02*
X21082000Y-48768000D01*
%TO.N,Shutdown B*%
X33728000Y-42768000D02*
X22002000Y-42768000D01*
X22002000Y-42768000D02*
X19685000Y-45085000D01*
%TD*%
M02*
