%TF.GenerationSoftware,KiCad,Pcbnew,7.0.10*%
%TF.CreationDate,2024-04-03T19:17:27+05:30*%
%TF.ProjectId,BSPD,42535044-2e6b-4696-9361-645f70636258,rev?*%
%TF.SameCoordinates,Original*%
%TF.FileFunction,Paste,Top*%
%TF.FilePolarity,Positive*%
%FSLAX46Y46*%
G04 Gerber Fmt 4.6, Leading zero omitted, Abs format (unit mm)*
G04 Created by KiCad (PCBNEW 7.0.10) date 2024-04-03 19:17:27*
%MOMM*%
%LPD*%
G01*
G04 APERTURE LIST*
G04 Aperture macros list*
%AMRoundRect*
0 Rectangle with rounded corners*
0 $1 Rounding radius*
0 $2 $3 $4 $5 $6 $7 $8 $9 X,Y pos of 4 corners*
0 Add a 4 corners polygon primitive as box body*
4,1,4,$2,$3,$4,$5,$6,$7,$8,$9,$2,$3,0*
0 Add four circle primitives for the rounded corners*
1,1,$1+$1,$2,$3*
1,1,$1+$1,$4,$5*
1,1,$1+$1,$6,$7*
1,1,$1+$1,$8,$9*
0 Add four rect primitives between the rounded corners*
20,1,$1+$1,$2,$3,$4,$5,0*
20,1,$1+$1,$4,$5,$6,$7,0*
20,1,$1+$1,$6,$7,$8,$9,0*
20,1,$1+$1,$8,$9,$2,$3,0*%
G04 Aperture macros list end*
%ADD10RoundRect,0.150000X-0.512500X-0.150000X0.512500X-0.150000X0.512500X0.150000X-0.512500X0.150000X0*%
%ADD11RoundRect,0.230000X-0.230000X-0.375000X0.230000X-0.375000X0.230000X0.375000X-0.230000X0.375000X0*%
%ADD12RoundRect,0.150000X-0.825000X-0.150000X0.825000X-0.150000X0.825000X0.150000X-0.825000X0.150000X0*%
%ADD13RoundRect,0.250000X-0.312500X-0.625000X0.312500X-0.625000X0.312500X0.625000X-0.312500X0.625000X0*%
%ADD14RoundRect,0.150000X-0.587500X-0.150000X0.587500X-0.150000X0.587500X0.150000X-0.587500X0.150000X0*%
%ADD15RoundRect,0.250000X-1.412500X-0.550000X1.412500X-0.550000X1.412500X0.550000X-1.412500X0.550000X0*%
%ADD16RoundRect,0.150000X0.150000X-0.587500X0.150000X0.587500X-0.150000X0.587500X-0.150000X-0.587500X0*%
%ADD17R,2.000000X1.500000*%
%ADD18R,2.000000X3.800000*%
%ADD19RoundRect,0.250001X-0.624999X0.462499X-0.624999X-0.462499X0.624999X-0.462499X0.624999X0.462499X0*%
G04 APERTURE END LIST*
D10*
%TO.C,U11*%
X95346500Y-58422000D03*
X95346500Y-59372000D03*
X95346500Y-60322000D03*
X97621500Y-60322000D03*
X97621500Y-58422000D03*
%TD*%
%TO.C,U9*%
X95346500Y-53972000D03*
X95346500Y-54922000D03*
X95346500Y-55872000D03*
X97621500Y-55872000D03*
X97621500Y-53972000D03*
%TD*%
%TO.C,U8*%
X95346500Y-49522000D03*
X95346500Y-50472000D03*
X95346500Y-51422000D03*
X97621500Y-51422000D03*
X97621500Y-49522000D03*
%TD*%
%TO.C,U7*%
X95346500Y-45072000D03*
X95346500Y-46022000D03*
X95346500Y-46972000D03*
X97621500Y-46972000D03*
X97621500Y-45072000D03*
%TD*%
%TO.C,U4*%
X95346500Y-40622000D03*
X95346500Y-41572000D03*
X95346500Y-42522000D03*
X97621500Y-42522000D03*
X97621500Y-40622000D03*
%TD*%
D11*
%TO.C,U3*%
X83504000Y-54722000D03*
X84644000Y-56222000D03*
X84644000Y-54722000D03*
X83504000Y-56222000D03*
D12*
X81599000Y-53567000D03*
X81599000Y-54837000D03*
X81599000Y-56107000D03*
X81599000Y-57377000D03*
X86549000Y-57377000D03*
X86549000Y-56107000D03*
X86549000Y-54837000D03*
X86549000Y-53567000D03*
%TD*%
D11*
%TO.C,U2*%
X83504000Y-48272000D03*
X84644000Y-49772000D03*
X84644000Y-48272000D03*
X83504000Y-49772000D03*
D12*
X81599000Y-47117000D03*
X81599000Y-48387000D03*
X81599000Y-49657000D03*
X81599000Y-50927000D03*
X86549000Y-50927000D03*
X86549000Y-49657000D03*
X86549000Y-48387000D03*
X86549000Y-47117000D03*
%TD*%
D11*
%TO.C,U1*%
X83504000Y-41822000D03*
X84644000Y-43322000D03*
X84644000Y-41822000D03*
X83504000Y-43322000D03*
D12*
X81599000Y-40667000D03*
X81599000Y-41937000D03*
X81599000Y-43207000D03*
X81599000Y-44477000D03*
X86549000Y-44477000D03*
X86549000Y-43207000D03*
X86549000Y-41937000D03*
X86549000Y-40667000D03*
%TD*%
D13*
%TO.C,R8*%
X89641500Y-64022000D03*
X92566500Y-64022000D03*
%TD*%
%TO.C,R7*%
X89641500Y-60732000D03*
X92566500Y-60732000D03*
%TD*%
%TO.C,R6*%
X89641500Y-57442000D03*
X92566500Y-57442000D03*
%TD*%
%TO.C,R5*%
X89641500Y-54152000D03*
X92566500Y-54152000D03*
%TD*%
%TO.C,R4*%
X89641500Y-50862000D03*
X92566500Y-50862000D03*
%TD*%
%TO.C,R3*%
X89641500Y-47572000D03*
X92566500Y-47572000D03*
%TD*%
%TO.C,R2*%
X89641500Y-44282000D03*
X92566500Y-44282000D03*
%TD*%
%TO.C,R1*%
X89641500Y-40992000D03*
X92566500Y-40992000D03*
%TD*%
D14*
%TO.C,Q4*%
X71406500Y-65822000D03*
X71406500Y-67722000D03*
X73281500Y-66772000D03*
%TD*%
%TO.C,Q3*%
X71406500Y-61372000D03*
X71406500Y-63272000D03*
X73281500Y-62322000D03*
%TD*%
%TO.C,Q2*%
X71406500Y-56922000D03*
X71406500Y-58822000D03*
X73281500Y-57872000D03*
%TD*%
D15*
%TO.C,C2*%
X72336500Y-51572000D03*
X77411500Y-51572000D03*
%TD*%
%TO.C,C1*%
X72336500Y-43422000D03*
X77411500Y-43422000D03*
%TD*%
D16*
%TO.C,Q1*%
X45024000Y-63421500D03*
X46924000Y-63421500D03*
X45974000Y-61546500D03*
%TD*%
D17*
%TO.C,U10*%
X37694000Y-69864000D03*
X37694000Y-67564000D03*
X37694000Y-65264000D03*
D18*
X31394000Y-67564000D03*
%TD*%
D19*
%TO.C,D1*%
X55118000Y-50255500D03*
X55118000Y-47280500D03*
%TD*%
M02*
