M48
; DRILL file {KiCad 7.0.10} date Wed Apr  3 19:17:39 2024
; FORMAT={-:-/ absolute / inch / decimal}
; #@! TF.CreationDate,2024-04-03T19:17:39+05:30
; #@! TF.GenerationSoftware,Kicad,Pcbnew,7.0.10
; #@! TF.FileFunction,Plated,1,2,PTH
FMAT,2
INCH
; #@! TA.AperFunction,Plated,PTH,ComponentDrill
T1C0.0315
; #@! TA.AperFunction,Plated,PTH,ComponentDrill
T2C0.0512
; #@! TA.AperFunction,Plated,PTH,ComponentDrill
T3C0.0598
%
G90
G05
T1
X4.95Y-1.5004
X4.95Y-1.6004
X4.95Y-1.7004
X4.95Y-2.0604
X4.95Y-2.1604
X4.95Y-2.2604
X4.95Y-2.6504
X4.95Y-2.7504
X4.95Y-2.8504
X5.3Y-1.5
X5.3Y-1.6
X5.3Y-1.7
X5.3Y-2.0604
X5.3Y-2.1604
X5.3Y-2.2604
X5.3Y-2.65
X5.3Y-2.75
X5.3Y-2.85
T2
X1.3279Y-1.6838
X1.3279Y-2.1562
X1.8082Y-1.6838
X1.8082Y-2.1562
X1.8869Y-1.92
T3
X0.775Y-1.775
X0.775Y-1.975
X0.775Y-2.175
X0.775Y-2.375
X0.775Y-2.575
X0.775Y-2.775
M30
