%TF.GenerationSoftware,KiCad,Pcbnew,7.0.10*%
%TF.CreationDate,2024-04-03T19:17:27+05:30*%
%TF.ProjectId,BSPD,42535044-2e6b-4696-9361-645f70636258,rev?*%
%TF.SameCoordinates,Original*%
%TF.FileFunction,Copper,L2,Bot*%
%TF.FilePolarity,Positive*%
%FSLAX46Y46*%
G04 Gerber Fmt 4.6, Leading zero omitted, Abs format (unit mm)*
G04 Created by KiCad (PCBNEW 7.0.10) date 2024-04-03 19:17:27*
%MOMM*%
%LPD*%
G01*
G04 APERTURE LIST*
%TA.AperFunction,ComponentPad*%
%ADD10C,1.440000*%
%TD*%
%TA.AperFunction,ComponentPad*%
%ADD11C,3.000000*%
%TD*%
%TA.AperFunction,ComponentPad*%
%ADD12R,3.000000X3.000000*%
%TD*%
%TA.AperFunction,Conductor*%
%ADD13C,0.250000*%
%TD*%
%TA.AperFunction,Conductor*%
%ADD14C,0.500000*%
%TD*%
G04 APERTURE END LIST*
D10*
%TO.P,RV6,1,1*%
%TO.N,VCC*%
X125730000Y-43190000D03*
%TO.P,RV6,2,2*%
%TO.N,Net-(U2A-+)*%
X125730000Y-40650000D03*
%TO.P,RV6,3,3*%
%TO.N,GND*%
X125730000Y-38110000D03*
%TD*%
%TO.P,RV5,1,1*%
%TO.N,VCC*%
X134620000Y-43180000D03*
%TO.P,RV5,2,2*%
%TO.N,Net-(U2B-+)*%
X134620000Y-40640000D03*
%TO.P,RV5,3,3*%
%TO.N,GND*%
X134620000Y-38100000D03*
%TD*%
D11*
%TO.P,K3,11*%
%TO.N,Shutdown A*%
X47928000Y-48768000D03*
%TO.P,K3,12*%
%TO.N,unconnected-(K3-Pad12)*%
X33728000Y-54768000D03*
%TO.P,K3,14*%
%TO.N,Shutdown B*%
X33728000Y-42768000D03*
%TO.P,K3,A1*%
%TO.N,12V*%
X45928000Y-42768000D03*
%TO.P,K3,A2*%
%TO.N,Net-(D1-A)*%
X45928000Y-54768000D03*
%TD*%
D10*
%TO.P,brake_upper_trig1,3,3*%
%TO.N,GND*%
X125730000Y-67320000D03*
%TO.P,brake_upper_trig1,2,2*%
%TO.N,Net-(U1B--)*%
X125730000Y-69860000D03*
%TO.P,brake_upper_trig1,1,1*%
%TO.N,VCC*%
X125730000Y-72400000D03*
%TD*%
%TO.P,brake_lower_trigger1,1,1*%
%TO.N,VCC*%
X134620000Y-72390000D03*
%TO.P,brake_lower_trigger1,2,2*%
%TO.N,Net-(U3A-+)*%
X134620000Y-69850000D03*
%TO.P,brake_lower_trigger1,3,3*%
%TO.N,GND*%
X134620000Y-67310000D03*
%TD*%
%TO.P,acc_upper_trig1,1,1*%
%TO.N,VCC*%
X125730000Y-57414000D03*
%TO.P,acc_upper_trig1,2,2*%
%TO.N,Net-(U1A--)*%
X125730000Y-54874000D03*
%TO.P,acc_upper_trig1,3,3*%
%TO.N,GND*%
X125730000Y-52334000D03*
%TD*%
%TO.P,acc_lower_trig1,1,1*%
%TO.N,VCC*%
X134620000Y-57414000D03*
%TO.P,acc_lower_trig1,2,2*%
%TO.N,Net-(U3B-+)*%
X134620000Y-54874000D03*
%TO.P,acc_lower_trig1,3,3*%
%TO.N,GND*%
X134620000Y-52334000D03*
%TD*%
D12*
%TO.P,J1,1,Pin_1*%
%TO.N,GND*%
X19685000Y-70485000D03*
D11*
%TO.P,J1,2,Pin_2*%
%TO.N,12V*%
X19685000Y-65405000D03*
%TO.P,J1,3,Pin_3*%
%TO.N,a_in*%
X19685000Y-60325000D03*
%TO.P,J1,4,Pin_4*%
%TO.N,b_in*%
X19685000Y-55245000D03*
%TO.P,J1,5,Pin_5*%
%TO.N,Shutdown A*%
X19685000Y-50165000D03*
%TO.P,J1,6,Pin_6*%
%TO.N,Shutdown B*%
X19685000Y-45085000D03*
%TD*%
D13*
%TO.N,VCC*%
X125740000Y-72390000D02*
X125730000Y-72400000D01*
%TO.N,GND*%
X134610000Y-38110000D02*
X134620000Y-38100000D01*
%TO.N,VCC*%
X137404000Y-57414000D02*
X137414000Y-57404000D01*
X137414000Y-57404000D02*
X137414000Y-71120000D01*
X137414000Y-43942000D02*
X137414000Y-57404000D01*
X134620000Y-57414000D02*
X137404000Y-57414000D01*
X134620000Y-43180000D02*
X136652000Y-43180000D01*
X136144000Y-72390000D02*
X134620000Y-72390000D01*
X136652000Y-43180000D02*
X137414000Y-43942000D01*
X137414000Y-71120000D02*
X136144000Y-72390000D01*
X134620000Y-43180000D02*
X130048000Y-43180000D01*
X130048000Y-43180000D02*
X125740000Y-43180000D01*
X134620000Y-72390000D02*
X130048000Y-72390000D01*
X130048000Y-72390000D02*
X125740000Y-72390000D01*
X134620000Y-57414000D02*
X130048000Y-57414000D01*
X130048000Y-57414000D02*
X125730000Y-57414000D01*
X125740000Y-43180000D02*
X125730000Y-43190000D01*
D14*
%TO.N,12V*%
X45928000Y-45396428D02*
X25919428Y-65405000D01*
X25919428Y-65405000D02*
X19685000Y-65405000D01*
X45928000Y-42768000D02*
X45928000Y-45396428D01*
%TD*%
M02*
